<?xml version="1.0" encoding="utf-8"?>
<!-- Generator: Adobe Illustrator 23.0.3, SVG Export Plug-In . SVG Version: 6.00 Build 0)  -->
<svg version="1.1" id="Livello_1" xmlns="http://www.w3.org/2000/svg" xmlns:xlink="http://www.w3.org/1999/xlink" x="0px" y="0px"
	 viewBox="0 0 2000 2000" style="enable-background:new 0 0 2000 2000;" xml:space="preserve">
<style type="text/css">
	.st0{display:none;fill:#17191D;}
	.st1{fill:none;stroke:#D17728;stroke-width:16;stroke-miterlimit:10;}
</style>
<g id="svg2647">
	<rect class="st0" width="2000" height="2000"/>
	<g>
		<path class="st1" d="M1216.9,795.8c-44.8-43.9-108.1-68.8-173.5-68.1l-28.3,0.3c-5.2,0-9.3,4.3-9.3,9.4l1.1,118.9
			c0,5.2,4.3,9.3,9.4,9.3l65.1-0.6c5.2,0,9.3-4.3,9.3-9.4l-0.2-25.7c-0.1-6.5,6.4-11.2,12.6-8.9c59.6,21.7,101,78.6,101.6,143.9
			c0.6,65.4-39.7,123.1-98.9,145.9c-6.1,2.3-12.7-2.2-12.7-8.7l-1.1-114.3c0-5.1-4.2-9.3-9.4-9.3h-65.1c-5.2,0-9.4,4.2-9.4,9.4
			l1.2,121.5c0.1,6.7-6.7,11.3-12.9,8.8c-28.1-11.4-53.9-31.8-75.9-60c-38.2-49-59.6-115-60.3-185.9c-0.7-70.9,19.5-137.3,56.8-187
			c35-46.7,80.9-72.7,129.5-73.2l63.6-0.6c5.2,0,9.3-4.3,9.3-9.4l-0.5-47.4c0-4.4-3.2-8.2-7.6-9.1l-22.5-4.4
			c-14.2-2.8-28.6-4.1-43.1-4c-37,0.4-72.6,10.1-105.9,28.9c-31.3,17.7-59.2,42.7-82.8,74.2c-47.1,62.8-72.6,145.4-71.7,232.6
			c0.8,87.2,27.9,169.3,76.1,231.2c24.2,31.1,52.6,55.5,84.2,72.6c18.5,10,37.8,17.3,57.7,21.7c4.3,1,7.4,4.7,7.4,9.1l0.6,227.8
			c0,11,15.7,12.9,18.4,2.3l59.2-231.1c0.9-3.5,3.7-6.1,7.2-6.8c47.6-9.8,91.1-33,123.8-66.2c44.7-45.5,69-105.7,68.4-169.5
			C1287.9,900.1,1262.5,840.4,1216.9,795.8z"/>
		<path class="st1" d="M1021,1457.8c-1,0-1.9-0.1-2.9-0.2c-11.4-1.4-19.8-10.8-19.8-22.3l-0.6-224.6c-20-4.7-39.6-12.2-58.2-22.3
			c-33.3-18-63-43.6-88.3-76.1c-50-64.2-78.1-149.1-79-239.2c-0.9-90.1,25.6-175.6,74.4-240.7c24.7-33,54-59.2,86.9-77.8
			c35.3-20,73-30.3,112.3-30.7c15.1,0,30.7,1.3,45.7,4.2l22.5,4.4c10.5,2.1,18.1,11.3,18.2,21.9l0.5,47.4
			c0.1,12.5-9.9,22.7-22.4,22.8l-63.5,0.6c-44.3,0.4-86.5,24.5-119,67.9c-35.6,47.4-54.8,111-54.1,178.9
			c0.6,68,21.1,131.1,57.5,177.9c19.2,24.6,41,42.6,65.1,53.6L995,987.9c-0.1-6.1,2.3-11.8,6.5-16.1c4.3-4.3,10-6.7,16.1-6.7h65.1
			c12.3,0,22.5,10,22.6,22.4l1,108.7c51.7-22.4,85.7-74.4,85.2-131.3c-0.5-56.8-35.5-108.1-87.7-129.6l0.2,20.1
			c0.1,6-2.2,11.7-6.5,16c-4.2,4.3-9.9,6.7-15.9,6.8l-65.1,0.6c-6,0.1-11.7-2.2-16-6.5c-4.3-4.2-6.7-9.9-6.8-15.9l-1.1-118.9
			c-0.1-6,2.2-11.7,6.5-16c4.2-4.3,9.9-6.7,15.9-6.8l28.3-0.3c0.8,0,1.7,0,2.5,0c68,0,133.7,26.1,180.4,71.9l0,0
			c48.1,47.1,74.9,110.1,75.6,177.5c0.6,67.3-25,130.8-72.2,178.9c-33.7,34.3-79.2,58.9-128.2,69.4l-58.6,228.7
			C1040.2,1451,1031.3,1457.8,1021,1457.8z M1047.8,550.3c-0.6,0-1.2,0-1.8,0c-34.7,0.3-68.2,9.5-99.5,27.2
			c-29.7,16.8-56.2,40.6-78.7,70.6c-45.4,60.5-69.9,140.3-69.1,224.6c0.8,84.3,26.9,163.6,73.4,223.2c23.1,29.6,50,52.9,80.1,69.1
			c17.4,9.4,35.7,16.3,54.3,20.4c10.4,2.3,17.7,11.4,17.8,21.9l0.5,197.4l51.7-201.7c2.2-8.4,8.8-14.7,17.4-16.5
			c44.8-9.2,86.4-31.4,117-62.5c42.2-43,65.2-99.8,64.6-160.1c-0.6-60.3-24.6-116.7-67.6-158.8l0,0c-41.8-41-100.7-64.4-161.9-64.4
			c-0.8,0-1.5,0-2.3,0l-24.4,0.2l1.1,111.1l57.3-0.5l-0.2-21.8c-0.1-7.4,3.5-14.4,9.6-18.7c6-4.3,13.8-5.3,20.7-2.8
			c65.3,23.8,109.6,86.6,110.3,156.2c0.7,69.7-42.5,133.3-107.3,158.3c-6.9,2.7-14.7,1.7-20.8-2.4c-6.1-4.2-9.9-11.1-9.9-18.5
			l-1.1-110.5h-57.4l1.1,117.6c0.1,7.6-3.6,14.7-9.9,18.9c-6.3,4.3-14.1,5.1-21.1,2.2c-30.5-12.4-57.9-34-81.4-64.1
			c-40-51.3-62.4-120.2-63.1-193.9c-0.7-73.7,20.4-143,59.4-195.1c37.6-50.1,87.3-78,140-78.5l59.7-0.6l-0.4-40.3l-19.4-3.8
			C1073.7,551.5,1060.7,550.3,1047.8,550.3z"/>
	</g>
</g>
</svg>
